<?xml version="1.0" encoding="UTF-8"?>
<!DOCTYPE svg PUBLIC "-//W3C//DTD SVG 1.1//EN" "http://www.w3.org/Graphics/SVG/1.1/DTD/svg11.dtd">
<svg xmlns="http://www.w3.org/2000/svg" version="1.1" width="85px" height="79px" style="shape-rendering:geometricPrecision; text-rendering:geometricPrecision; image-rendering:optimizeQuality; fill-rule:evenodd; clip-rule:evenodd" xmlns:xlink="http://www.w3.org/1999/xlink">
<g><path style="opacity:1" fill="#2a2e31" d="M -0.5,-0.5 C 27.8333,-0.5 56.1667,-0.5 84.5,-0.5C 84.5,25.8333 84.5,52.1667 84.5,78.5C 56.1667,78.5 27.8333,78.5 -0.5,78.5C -0.5,52.1667 -0.5,25.8333 -0.5,-0.5 Z"/></g>
<g><path style="opacity:1" fill="#0d0d0d" d="M 24.5,10.5 C 31.5,10.5 38.5,10.5 45.5,10.5C 45.5,11.5 45.5,12.5 45.5,13.5C 46.5,13.5 47.5,13.5 48.5,13.5C 48.5,15.5 48.5,17.5 48.5,19.5C 51.5,19.5 54.5,19.5 57.5,19.5C 57.5,21.5 57.5,23.5 57.5,25.5C 58.5,25.5 59.5,25.5 60.5,25.5C 60.5,32.5 60.5,39.5 60.5,46.5C 59.5,46.5 58.5,46.5 57.5,46.5C 57.5,52.5 57.5,58.5 57.5,64.5C 56.5,64.5 55.5,64.5 54.5,64.5C 54.5,65.5 54.5,66.5 54.5,67.5C 51.5,67.5 48.5,67.5 45.5,67.5C 45.5,66.5 45.5,65.5 45.5,64.5C 44.5,64.5 43.5,64.5 42.5,64.5C 42.5,65.5 42.5,66.5 42.5,67.5C 36.5,67.5 30.5,67.5 24.5,67.5C 24.5,59.5 24.5,51.5 24.5,43.5C 25.5,43.5 26.5,43.5 27.5,43.5C 27.5,36.5 27.5,29.5 27.5,22.5C 25.5,22.5 23.5,22.5 21.5,22.5C 21.5,19.5 21.5,16.5 21.5,13.5C 22.5,13.5 23.5,13.5 24.5,13.5C 24.5,12.5 24.5,11.5 24.5,10.5 Z"/></g>
<g><path style="opacity:1" fill="#d1202b" d="M 42.5,22.5 C 41.5,22.5 40.5,22.5 39.5,22.5C 38.5,22.5 37.5,22.5 36.5,22.5C 36.5,21.5 36.5,20.5 36.5,19.5C 35.5,19.5 34.5,19.5 33.5,19.5C 33.5,18.5 33.5,17.5 33.5,16.5C 31.5,16.5 29.5,16.5 27.5,16.5C 27.5,15.5 27.5,14.5 27.5,13.5C 32.5,13.5 37.5,13.5 42.5,13.5C 42.5,14.5 42.5,15.5 42.5,16.5C 43.5,16.5 44.5,16.5 45.5,16.5C 45.5,17.5 45.5,18.5 45.5,19.5C 44.5,19.5 43.5,19.5 42.5,19.5C 42.5,20.5 42.5,21.5 42.5,22.5 Z"/></g>
<g><path style="opacity:1" fill="#d1202b" d="M 27.5,16.5 C 27.5,17.5 27.5,18.5 27.5,19.5C 26.5,19.5 25.5,19.5 24.5,19.5C 24.5,18.5 24.5,17.5 24.5,16.5C 25.5,16.5 26.5,16.5 27.5,16.5 Z"/></g>
<g><path style="opacity:1" fill="#e9dfd0" d="M 36.5,22.5 C 37.5,22.5 38.5,22.5 39.5,22.5C 39.5,23.5 39.5,24.5 39.5,25.5C 37.5,25.5 35.5,25.5 33.5,25.5C 33.5,26.5 33.5,27.5 33.5,28.5C 32.5,28.5 31.5,28.5 30.5,28.5C 30.5,26.5 30.5,24.5 30.5,22.5C 32.5,22.5 34.5,22.5 36.5,22.5 Z"/></g>
<g><path style="opacity:1" fill="#7b776e" d="M 39.5,22.5 C 40.5,22.5 41.5,22.5 42.5,22.5C 46.5,22.5 50.5,22.5 54.5,22.5C 54.5,23.5 54.5,24.5 54.5,25.5C 49.5,25.5 44.5,25.5 39.5,25.5C 39.5,24.5 39.5,23.5 39.5,22.5 Z"/></g>
<g><path style="opacity:1" fill="#7b776e" d="M 30.5,28.5 C 31.5,28.5 32.5,28.5 33.5,28.5C 33.5,33.5 33.5,38.5 33.5,43.5C 32.5,43.5 31.5,43.5 30.5,43.5C 30.5,38.5 30.5,33.5 30.5,28.5 Z"/></g>
<g><path style="opacity:1" fill="#e9dfd0" d="M 45.5,28.5 C 45.5,29.5 45.5,30.5 45.5,31.5C 44.5,31.5 43.5,31.5 42.5,31.5C 41.5,31.5 40.5,31.5 39.5,31.5C 39.5,32.5 39.5,33.5 39.5,34.5C 38.5,34.5 37.5,34.5 36.5,34.5C 36.5,32.5 36.5,30.5 36.5,28.5C 39.5,28.5 42.5,28.5 45.5,28.5 Z"/></g>
<g><path style="opacity:1" fill="#b2aaa0" d="M 45.5,28.5 C 49.5,28.5 53.5,28.5 57.5,28.5C 57.5,33.5 57.5,38.5 57.5,43.5C 50.5,43.5 43.5,43.5 36.5,43.5C 36.5,40.5 36.5,37.5 36.5,34.5C 37.5,34.5 38.5,34.5 39.5,34.5C 39.5,36.5 39.5,38.5 39.5,40.5C 40.5,40.5 41.5,40.5 42.5,40.5C 42.5,37.5 42.5,34.5 42.5,31.5C 43.5,31.5 44.5,31.5 45.5,31.5C 45.5,30.5 45.5,29.5 45.5,28.5 Z"/></g>
<g><path style="opacity:1" fill="#0d0d0d" d="M 42.5,31.5 C 42.5,34.5 42.5,37.5 42.5,40.5C 41.5,40.5 40.5,40.5 39.5,40.5C 39.5,38.5 39.5,36.5 39.5,34.5C 39.5,33.5 39.5,32.5 39.5,31.5C 40.5,31.5 41.5,31.5 42.5,31.5 Z"/></g>
<g><path style="opacity:1" fill="#0d0d0d" d="M 45.5,31.5 C 46.5,31.5 47.5,31.5 48.5,31.5C 48.5,34.5 48.5,37.5 48.5,40.5C 47.5,40.5 46.5,40.5 45.5,40.5C 45.5,37.5 45.5,34.5 45.5,31.5 Z"/></g>
<g><path style="opacity:1" fill="#0d0d0d" d="M 51.5,31.5 C 52.5,31.5 53.5,31.5 54.5,31.5C 54.5,34.5 54.5,37.5 54.5,40.5C 53.5,40.5 52.5,40.5 51.5,40.5C 51.5,37.5 51.5,34.5 51.5,31.5 Z"/></g>
<g><path style="opacity:1" fill="#0a702f" d="M 36.5,46.5 C 36.5,51.5 36.5,56.5 36.5,61.5C 33.5,61.5 30.5,61.5 27.5,61.5C 27.5,56.5 27.5,51.5 27.5,46.5C 30.5,46.5 33.5,46.5 36.5,46.5 Z"/></g>
<g><path style="opacity:1" fill="#eaa723" d="M 36.5,46.5 C 42.5,46.5 48.5,46.5 54.5,46.5C 54.5,47.5 54.5,48.5 54.5,49.5C 49.5,49.5 44.5,49.5 39.5,49.5C 39.5,54.5 39.5,59.5 39.5,64.5C 35.5,64.5 31.5,64.5 27.5,64.5C 27.5,63.5 27.5,62.5 27.5,61.5C 30.5,61.5 33.5,61.5 36.5,61.5C 36.5,56.5 36.5,51.5 36.5,46.5 Z"/></g>
<g><path style="opacity:1" fill="#7b776e" d="M 54.5,58.5 C 52.5,58.5 50.5,58.5 48.5,58.5C 46.5,58.5 44.5,58.5 42.5,58.5C 42.5,56.5 42.5,54.5 42.5,52.5C 46.5,52.5 50.5,52.5 54.5,52.5C 54.5,54.5 54.5,56.5 54.5,58.5 Z"/></g>
<g><path style="opacity:1" fill="#b2aaa0" d="M 48.5,58.5 C 50.5,58.5 52.5,58.5 54.5,58.5C 54.5,59.5 54.5,60.5 54.5,61.5C 53.5,61.5 52.5,61.5 51.5,61.5C 51.5,62.5 51.5,63.5 51.5,64.5C 50.5,64.5 49.5,64.5 48.5,64.5C 48.5,62.5 48.5,60.5 48.5,58.5 Z"/></g>
</svg>
